# xmcd
#
# Track frame offsets: 
#        150
#        12631
#        24846
#        37734
#        50232
#        61903
#        72165
#        84972
#        98922
#        108738
#        120578
#        133288
#        144410
#        159024
#        169360
#        182250
#        196618
#        209191
#        220029
#        233355
#        246212
#        260128
#        270794
#        282587
#        294551
#
# Disc length: 4111 seconds
#
# Revision: 2
# Processed by: cddbd v1.5.2PL0 Copyright (c) Steve Scherf et al.
# Submitted via: ExactAudioCopyFreeDBPlugin 1.0
#
DISCID=66100d19
DTITLE=Various Artist - Rhythm 'n' Blues:  Nasty [Membran Music] [box
DTITLE=set]
DYEAR=2005
DGENRE=Risqué
TTITLE0=The Midnighters - Work with Me Annie
TTITLE1=The Midnighters - Annie Had a Baby
TTITLE2=The Midnighters - Annie's Aunt Fannie
TTITLE3=Varetta Dillard - So Many Ways
TTITLE4=Jim Wynn - Fat Meat
TTITLE5=Cootie Williams - Mercenary Papa
TTITLE6=Wynonie Harris - Lollipop Mama
TTITLE7=Howlin' Wolf - Ridin' in the Moonlight
TTITLE8=Fats Noel - Ride, Daddy, Ride
TTITLE9=Alonzo Scales - My Baby Likes to Shuffle
TTITLE10=Ruth Brown - Daddy Daddy
TTITLE11=Roy Brown - Mighty Mighty Man
TTITLE12=Big Joe Turner - My Gal's a Jockey
TTITLE13=Cecil Grant - We're Gonna Rock
TTITLE14=Mabel Scott - Mr. Fine
TTITLE15=Jimmy Wilson - Lemon Squeezer
TTITLE16=Little Esther - The Deacon Moves In
TTITLE17=Sammy Cotton - We're Gonna Ball This Mornin'
TTITLE18=Jimmy Liggins - I Can't Stop It
TTITLE19=The Moonglows - Ooh Rockin Daddy
TTITLE20=Little Walter - You're So Fine
TTITLE21=Sarah Dean - Long Lean Daddy
TTITLE22=Crown Prince Waterford - Kissin' Bug Boogie
TTITLE23=Wynonie Harris - Playful Baby
TTITLE24=Joe Liggins - Louisiana Women
EXTD=Various Artist - Rhythm'n'Blues_Nasty_CD2\n\n2nd CD of a box of 4 CDs
EXTT0=
EXTT1=
EXTT2=
EXTT3=
EXTT4=
EXTT5=
EXTT6=
EXTT7=
EXTT8=
EXTT9=
EXTT10=
EXTT11=
EXTT12=
EXTT13=
EXTT14=
EXTT15=
EXTT16=
EXTT17=
EXTT18=
EXTT19=
EXTT20=
EXTT21=
EXTT22=
EXTT23=
EXTT24=
PLAYORDER=
